<svg xmlns="http://www.w3.org/2000/svg" viewBox="0 0 360 280" role="img" aria-label="Base Consulting">
  <title>Base Consulting — primary logo</title>
  <g fill="#0F2744">
    <rect x="58" y="128" width="244" height="3.5" rx="1.75"/>
    <circle cx="88" cy="68" r="10"/>
    <path d="M95 62c3-1 7-1 9 2 1 3-1 6-4 7-3 0-6-1-7-4l2-5z"/>
    <path d="M72 128h32l-3-42c0-11-6-17-13-17s-13 6-13 17l-3 42z"/>
    <path d="M74 95h28l-4 33H78l-4-33z"/>
    <circle cx="132" cy="72" r="10"/>
    <path d="M116 128h32v-20H116z"/>
    <path d="M118 108h28v-28c0-9-5-14-14-14s-14 5-14 14v28z"/>
    <path d="M120 88h24v6H120z"/>
    <circle cx="186" cy="58" r="12"/>
    <path d="M162 128h48l-5-56c-1-13-9-20-19-20s-18 7-19 20l-5 56z"/>
    <path d="M180 78l6 22 6-22h-12z" opacity=".4"/>
    <path d="M200 86c6 2 10 10 11 20v22h-8V106c-1-8-3-14-8-18l5-2z"/>
    <circle cx="244" cy="60" r="11"/>
    <path d="M218 128h52l-7-52c-2-15-11-22-19-22s-17 7-19 22l-7 52z"/>
    <path d="M258 78c9 3 16 12 18 24" fill="none" stroke="#0F2744" stroke-width="5.5" stroke-linecap="round"/>
    <ellipse cx="272" cy="108" rx="6" ry="8"/>
  </g>
  <path d="M62 128C62 62 122 30 186 30c52 0 100 24 118 64" fill="none" stroke="#E5A100" stroke-width="5.5" stroke-linecap="round"/>
  <g fill="#E5A100">
    <circle cx="90" cy="86" r="5"/>
    <circle cx="128" cy="52" r="5"/>
    <circle cx="186" cy="34" r="5"/>
    <circle cx="242" cy="46" r="5"/>
    <circle cx="282" cy="78" r="5"/>
  </g>
  <text x="180" y="188" text-anchor="middle" font-family="Sora, Arial Black, Helvetica Neue, Arial, sans-serif" font-size="52" font-weight="800" letter-spacing="0.06em" fill="#0F2744">BASE</text>
  <text x="180" y="222" text-anchor="middle" font-family="Sora, Helvetica Neue, Arial, sans-serif" font-size="16" font-weight="500" letter-spacing="0.42em" fill="#475569">CONSULTING</text>
</svg>
